<?xml version="1.0" encoding="utf-8"?>
<!-- Generator: Adobe Illustrator 18.1.1, SVG Export Plug-In . SVG Version: 6.00 Build 0)  -->
<svg version="1.1" id="Layer_1" xmlns="http://www.w3.org/2000/svg" xmlns:xlink="http://www.w3.org/1999/xlink" x="0px" y="0px"
	 viewBox="431 114.9 1457.3 612" enable-background="new 431 114.9 1457.3 612" xml:space="preserve">
<g transform="translate(730.8000000000001, 22.5) ">
	<polygon fill="none" stroke="#000000" stroke-width="0.9" points="284.8,110.4 313.1,110.4 313.1,118.9 341.4,118.9 341.4,110.4 
		363,110.4 363,118.9 384.6,118.9 384.6,110.4 406.2,110.4 406.2,118.9 427.8,118.9 427.8,110.4 449.4,110.4 449.4,118.9 471,118.9 
		471,110.4 492.6,110.4 492.6,118.9 514.2,118.9 514.2,110.4 535.8,110.4 535.8,118.9 557.4,118.9 557.4,110.4 579,110.4 579,118.9 
		600.6,118.9 600.6,110.4 622.2,110.4 622.2,118.9 643.8,118.9 643.8,110.4 665.4,110.4 665.4,118.9 687,118.9 687,110.4 
		708.6,110.4 708.6,118.9 730.2,118.9 730.2,110.4 751.8,110.4 751.8,118.9 773.4,118.9 773.4,110.4 795,110.4 795,118.9 
		823.2,118.9 823.2,110.4 851.5,110.4 851.5,144.6 843,144.6 843,178.8 851.5,178.8 851.5,200.4 843,200.4 843,222 851.5,222 
		851.5,243.6 843,243.6 843,265.2 851.5,265.2 851.5,286.8 843,286.8 843,308.4 851.5,308.4 851.5,330 843,330 843,364.2 
		851.5,364.2 851.5,398.4 823.2,398.4 823.2,389.9 795,389.9 795,398.4 773.4,398.4 773.4,389.9 751.8,389.9 751.8,398.4 
		730.2,398.4 730.2,389.9 708.6,389.9 708.6,398.4 687,398.4 687,389.9 665.4,389.9 665.4,398.4 643.8,398.4 643.8,389.9 
		622.2,389.9 622.2,398.4 600.6,398.4 600.6,389.9 579,389.9 579,398.4 557.4,398.4 557.4,389.9 535.8,389.9 535.8,398.4 
		514.2,398.4 514.2,389.9 492.6,389.9 492.6,398.4 471,398.4 471,389.9 449.4,389.9 449.4,398.4 427.8,398.4 427.8,389.9 
		406.2,389.9 406.2,398.4 384.6,398.4 384.6,389.9 363,389.9 363,398.4 341.4,398.4 341.4,389.9 313.1,389.9 313.1,398.4 
		284.8,398.4 284.8,364.2 293.3,364.2 293.3,330 284.8,330 284.8,308.4 293.3,308.4 293.3,286.8 284.8,286.8 284.8,265.2 
		293.3,265.2 293.3,243.6 284.8,243.6 284.8,222 293.3,222 293.3,200.4 284.8,200.4 284.8,178.8 293.3,178.8 293.3,144.6 
		284.8,144.6 	"/>
</g>
<g transform="translate(1439.1000000000001, 22.5) ">
	<polygon fill="none" stroke="#000000" stroke-width="0.9" points="151.7,110.4 177.4,110.4 177.4,118.9 211.6,118.9 211.6,110.4 
		233.2,110.4 233.2,118.9 254.8,118.9 254.8,110.4 276.4,110.4 276.4,118.9 298,118.9 298,110.4 319.6,110.4 319.6,118.9 
		341.2,118.9 341.2,110.4 362.8,110.4 362.8,118.9 397,118.9 397,110.4 422.7,110.4 422.7,144.6 431.2,144.6 431.2,178.8 
		422.7,178.8 422.7,200.4 431.2,200.4 431.2,222 422.7,222 422.7,243.6 431.2,243.6 431.2,265.2 422.7,265.2 422.7,286.8 
		431.2,286.8 431.2,308.4 422.7,308.4 422.7,330 431.2,330 431.2,364.2 422.7,364.2 422.7,398.4 397,398.4 397,389.9 362.8,389.9 
		362.8,398.4 341.2,398.4 341.2,389.9 319.6,389.9 319.6,398.4 298,398.4 298,389.9 276.4,389.9 276.4,398.4 254.8,398.4 
		254.8,389.9 233.2,389.9 233.2,398.4 211.6,398.4 211.6,389.9 177.4,389.9 177.4,398.4 151.7,398.4 151.7,364.2 143.2,364.2 
		143.2,330 151.7,330 151.7,308.4 143.2,308.4 143.2,286.8 151.7,286.8 151.7,265.2 143.2,265.2 143.2,243.6 151.7,243.6 151.7,222 
		143.2,222 143.2,200.4 151.7,200.4 151.7,178.8 143.2,178.8 143.2,144.6 151.7,144.6 	"/>
</g>
<g transform="translate(1439.1000000000001, 382.5) ">
	<polygon fill="none" stroke="#000000" stroke-width="0.9" points="151.7,38.4 177.4,38.4 177.4,46.9 211.6,46.9 211.6,38.4 
		233.2,38.4 233.2,46.9 254.8,46.9 254.8,38.4 276.4,38.4 276.4,46.9 298,46.9 298,38.4 319.6,38.4 319.6,46.9 341.2,46.9 
		341.2,38.4 362.8,38.4 362.8,46.9 397,46.9 397,38.4 422.7,38.4 422.7,72.6 431.2,72.6 431.2,106.8 422.7,106.8 422.7,128.4 
		431.2,128.4 431.2,150 422.7,150 422.7,171.6 431.2,171.6 431.2,193.2 422.7,193.2 422.7,214.8 431.2,214.8 431.2,236.4 
		422.7,236.4 422.7,258 431.2,258 431.2,292.2 422.7,292.2 422.7,326.4 397,326.4 397,317.9 362.8,317.9 362.8,326.4 341.2,326.4 
		341.2,317.9 319.6,317.9 319.6,326.4 298,326.4 298,317.9 276.4,317.9 276.4,326.4 254.8,326.4 254.8,317.9 233.2,317.9 
		233.2,326.4 211.6,326.4 211.6,317.9 177.4,317.9 177.4,326.4 151.7,326.4 151.7,292.2 143.2,292.2 143.2,258 151.7,258 
		151.7,236.4 143.2,236.4 143.2,214.8 151.7,214.8 151.7,193.2 143.2,193.2 143.2,171.6 151.7,171.6 151.7,150 143.2,150 
		143.2,128.4 151.7,128.4 151.7,106.8 143.2,106.8 143.2,72.6 151.7,72.6 	"/>
</g>
<g transform="translate(22.5, 382.5) ">
	<polygon fill="none" stroke="#000000" stroke-width="0.9" points="434.5,46.5 454.3,46.5 454.3,38 482.6,38 482.6,46.5 504.2,46.5 
		504.2,38 525.8,38 525.8,46.5 547.4,46.5 547.4,38 569,38 569,46.5 590.6,46.5 590.6,38 612.2,38 612.2,46.5 633.8,46.5 633.8,38 
		655.4,38 655.4,46.5 677,46.5 677,38 698.6,38 698.6,46.5 720.2,46.5 720.2,38 741.8,38 741.8,46.5 763.4,46.5 763.4,38 785,38 
		785,46.5 806.6,46.5 806.6,38 828.2,38 828.2,46.5 849.8,46.5 849.8,38 871.4,38 871.4,46.5 893,46.5 893,38 914.6,38 914.6,46.5 
		936.2,46.5 936.2,38 964.4,38 964.4,46.5 984.2,46.5 984.2,72.2 992.7,72.2 992.7,106.4 984.2,106.4 984.2,128 992.7,128 
		992.7,149.6 984.2,149.6 984.2,171.2 992.7,171.2 992.7,192.8 984.2,192.8 984.2,214.4 992.7,214.4 992.7,236 984.2,236 
		984.2,257.6 992.7,257.6 992.7,291.8 984.2,291.8 984.2,317.5 964.4,317.5 964.4,326 936.2,326 936.2,317.5 914.6,317.5 914.6,326 
		893,326 893,317.5 871.4,317.5 871.4,326 849.8,326 849.8,317.5 828.2,317.5 828.2,326 806.6,326 806.6,317.5 785,317.5 785,326 
		763.4,326 763.4,317.5 741.8,317.5 741.8,326 720.2,326 720.2,317.5 698.6,317.5 698.6,326 677,326 677,317.5 655.4,317.5 
		655.4,326 633.8,326 633.8,317.5 612.2,317.5 612.2,326 590.6,326 590.6,317.5 569,317.5 569,326 547.4,326 547.4,317.5 
		525.8,317.5 525.8,326 504.2,326 504.2,317.5 482.6,317.5 482.6,326 454.3,326 454.3,317.5 434.5,317.5 434.5,291.8 426,291.8 
		426,257.6 434.5,257.6 434.5,236 426,236 426,214.4 434.5,214.4 434.5,192.8 426,192.8 426,171.2 434.5,171.2 434.5,149.6 
		426,149.6 426,128 434.5,128 434.5,106.4 426,106.4 426,72.2 434.5,72.2 	"/>
</g>
<g transform="translate(730.8000000000001, 382.5) ">
	<polygon fill="none" stroke="#000000" stroke-width="0.9" points="293.4,46.9 313.2,46.9 313.2,38.4 341.4,38.4 341.4,46.9 
		363,46.9 363,38.4 384.6,38.4 384.6,46.9 406.2,46.9 406.2,38.4 427.8,38.4 427.8,46.9 449.4,46.9 449.4,38.4 471,38.4 471,46.9 
		492.6,46.9 492.6,38.4 514.2,38.4 514.2,46.9 535.8,46.9 535.8,38.4 557.4,38.4 557.4,46.9 579,46.9 579,38.4 600.6,38.4 
		600.6,46.9 622.2,46.9 622.2,38.4 643.8,38.4 643.8,46.9 665.4,46.9 665.4,38.4 687,38.4 687,46.9 708.6,46.9 708.6,38.4 
		730.2,38.4 730.2,46.9 751.8,46.9 751.8,38.4 773.4,38.4 773.4,46.9 795,46.9 795,38.4 823.3,38.4 823.3,46.9 843.1,46.9 
		843.1,72.6 851.5,72.6 851.5,106.8 843.1,106.8 843.1,128.4 851.5,128.4 851.5,150 843.1,150 843.1,171.6 851.5,171.6 851.5,193.2 
		843.1,193.2 843.1,214.8 851.5,214.8 851.5,236.4 843.1,236.4 843.1,258 851.5,258 851.5,292.2 843.1,292.2 843.1,317.9 
		823.3,317.9 823.3,326.4 795,326.4 795,317.9 773.4,317.9 773.4,326.4 751.8,326.4 751.8,317.9 730.2,317.9 730.2,326.4 
		708.6,326.4 708.6,317.9 687,317.9 687,326.4 665.4,326.4 665.4,317.9 643.8,317.9 643.8,326.4 622.2,326.4 622.2,317.9 
		600.6,317.9 600.6,326.4 579,326.4 579,317.9 557.4,317.9 557.4,326.4 535.8,326.4 535.8,317.9 514.2,317.9 514.2,326.4 
		492.6,326.4 492.6,317.9 471,317.9 471,326.4 449.4,326.4 449.4,317.9 427.8,317.9 427.8,326.4 406.2,326.4 406.2,317.9 
		384.6,317.9 384.6,326.4 363,326.4 363,317.9 341.4,317.9 341.4,326.4 313.2,326.4 313.2,317.9 293.4,317.9 293.4,292.2 
		284.9,292.2 284.9,258 293.4,258 293.4,236.4 284.9,236.4 284.9,214.8 293.4,214.8 293.4,193.2 284.9,193.2 284.9,171.6 
		293.4,171.6 293.4,150 284.9,150 284.9,128.4 293.4,128.4 293.4,106.8 284.9,106.8 284.9,72.6 293.4,72.6 	"/>
</g>
<g>
	<g transform="translate(22.5, 22.5) ">
		<polygon fill="none" stroke="#000000" stroke-width="0.9" points="426.3,110.4 454.5,110.4 454.5,118.9 482.8,118.9 482.8,110.4 
			504.4,110.4 504.4,118.9 526,118.9 526,110.4 547.6,110.4 547.6,118.9 569.2,118.9 569.2,110.4 590.8,110.4 590.8,118.9 
			612.4,118.9 612.4,110.4 634,110.4 634,118.9 655.6,118.9 655.6,110.4 677.2,110.4 677.2,118.9 698.8,118.9 698.8,110.4 
			720.4,110.4 720.4,118.9 742,118.9 742,110.4 763.6,110.4 763.6,118.9 785.2,118.9 785.2,110.4 806.8,110.4 806.8,118.9 
			828.4,118.9 828.4,110.4 850,110.4 850,118.9 871.6,118.9 871.6,110.4 893.2,110.4 893.2,118.9 914.8,118.9 914.8,110.4 
			936.4,110.4 936.4,118.9 964.7,118.9 964.7,110.4 992.9,110.4 992.9,144.6 984.4,144.6 984.4,178.8 992.9,178.8 992.9,200.4 
			984.4,200.4 984.4,222 992.9,222 992.9,243.6 984.4,243.6 984.4,265.2 992.9,265.2 992.9,286.8 984.4,286.8 984.4,308.4 
			992.9,308.4 992.9,330 984.4,330 984.4,364.2 992.9,364.2 992.9,398.4 964.7,398.4 964.7,389.9 936.4,389.9 936.4,398.4 
			914.8,398.4 914.8,389.9 893.2,389.9 893.2,398.4 871.6,398.4 871.6,389.9 850,389.9 850,398.4 828.4,398.4 828.4,389.9 
			806.8,389.9 806.8,398.4 785.2,398.4 785.2,389.9 763.6,389.9 763.6,398.4 742,398.4 742,389.9 720.4,389.9 720.4,398.4 
			698.8,398.4 698.8,389.9 677.2,389.9 677.2,398.4 655.6,398.4 655.6,389.9 634,389.9 634,398.4 612.4,398.4 612.4,389.9 
			590.8,389.9 590.8,398.4 569.2,398.4 569.2,389.9 547.6,389.9 547.6,398.4 526,398.4 526,389.9 504.4,389.9 504.4,398.4 
			482.8,398.4 482.8,389.9 454.5,389.9 454.5,398.4 426.3,398.4 426.3,364.2 434.8,364.2 434.8,330 426.3,330 426.3,308.4 
			434.8,308.4 434.8,286.8 426.3,286.8 426.3,265.2 434.8,265.2 434.8,243.6 426.3,243.6 426.3,222 434.8,222 434.8,200.4 
			426.3,200.4 426.3,178.8 434.8,178.8 434.8,144.6 426.3,144.6 		"/>
	</g>
	<rect x="551.3" y="214.6" fill="none" stroke="#000000" stroke-width="0.9" width="361.5" height="124.5"/>
</g>
<g>
	<path fill="#0000FF" d="M515.1,554.4h-9.7v26.3h-7.8v-26.3h-9.5v-6h27V554.4z"/>
	<path fill="#0000FF" d="M545.4,580.7h-7.7v-13.5h-11.5v13.5h-7.8v-32.3h7.8v12.8h11.5v-12.8h7.7V580.7z"/>
	<path fill="#0000FF" d="M570.3,567h-12.2v7.7h14.5v6h-22.2v-32.3h22.3v6h-14.5v6.8h12.2V567z"/>
	<path fill="#0000FF" d="M613.4,576.7c-1.2,1.3-2.9,2.4-5.3,3.2c-2.3,0.8-4.8,1.2-7.6,1.2c-4.2,0-7.6-1.3-10.1-3.9
		c-2.5-2.6-3.9-6.2-4.1-10.8l0-2.8c0-3.2,0.6-6,1.7-8.3c1.1-2.4,2.7-4.2,4.8-5.5c2.1-1.3,4.5-1.9,7.3-1.9c4,0,7.1,0.9,9.4,2.8
		c2.2,1.8,3.5,4.6,3.9,8.2h-7.5c-0.3-1.8-0.8-3.1-1.7-3.9c-0.9-0.8-2.1-1.2-3.8-1.2c-2,0-3.5,0.8-4.5,2.5c-1.1,1.7-1.6,4-1.6,7.1v2
		c0,3.2,0.6,5.6,1.7,7.3c1.1,1.6,2.8,2.4,5.2,2.4c2,0,3.5-0.5,4.5-1.4v-5h-5.4v-5.3h13.2V576.7z"/>
	<path fill="#0000FF" d="M638,567h-12.2v7.7h14.5v6H618v-32.3h22.3v6h-14.5v6.8H638V567z"/>
	<path fill="#0000FF" d="M670.3,580.7h-7.7l-11.4-20.1v20.1h-7.8v-32.3h7.8l11.4,20.1v-20.1h7.8V580.7z"/>
	<path fill="#0000FF" d="M695.3,567H683v7.7h14.5v6h-22.2v-32.3h22.3v6H683v6.8h12.2V567z"/>
	<path fill="#0000FF" d="M712.6,569.2h-4.2v11.4h-7.8v-32.3h12.7c3.8,0,6.8,0.8,9,2.5c2.2,1.7,3.2,4.1,3.2,7.2
		c0,2.2-0.5,4.1-1.4,5.6c-0.9,1.5-2.3,2.7-4.3,3.6l6.7,13v0.3h-8.3L712.6,569.2z M708.4,563.3h4.9c1.5,0,2.6-0.4,3.3-1.2
		c0.7-0.8,1.1-1.9,1.1-3.3c0-1.4-0.4-2.5-1.1-3.3c-0.8-0.8-1.9-1.2-3.3-1.2h-4.9V563.3z"/>
	<path fill="#0000FF" d="M748.6,574.6h-10.7l-1.9,6h-8.3l11.8-32.3h7.3l11.9,32.3h-8.4L748.6,574.6z M739.8,568.6h6.9l-3.5-11.2
		L739.8,568.6z"/>
	<path fill="#0000FF" d="M769,574.7h13.5v6h-21.3v-32.3h7.8V574.7z"/>
	<path fill="#0000FF" d="M824.4,565.2c0,3.1-0.6,5.9-1.8,8.4c-1.2,2.4-2.8,4.3-5,5.6c-2.2,1.3-4.6,2-7.3,2c-2.7,0-5.2-0.6-7.3-1.9
		c-2.1-1.3-3.8-3.1-5-5.4c-1.2-2.3-1.8-5-1.9-8.1v-1.8c0-3.2,0.6-6,1.7-8.4c1.2-2.4,2.8-4.3,5-5.6c2.2-1.3,4.6-2,7.4-2
		c2.7,0,5.2,0.7,7.3,2c2.1,1.3,3.8,3.2,5,5.6c1.2,2.4,1.8,5.2,1.8,8.3V565.2z M816.5,563.8c0-3.2-0.5-5.6-1.6-7.3
		c-1.1-1.7-2.6-2.5-4.6-2.5c-3.9,0-6,2.9-6.2,8.8l0,2.4c0,3.2,0.5,5.6,1.6,7.3c1,1.7,2.6,2.5,4.7,2.5c2,0,3.5-0.8,4.5-2.5
		c1.1-1.7,1.6-4.1,1.6-7.2V563.8z"/>
	<path fill="#0000FF" d="M836.2,569.7v11h-7.8v-32.3h12.9c2.5,0,4.7,0.5,6.6,1.4c1.9,0.9,3.4,2.2,4.4,3.9c1,1.7,1.6,3.6,1.6,5.7
		c0,3.1-1.1,5.7-3.4,7.5c-2.3,1.9-5.3,2.8-9.3,2.8H836.2z M836.2,563.7h5.1c1.5,0,2.7-0.4,3.4-1.1c0.8-0.8,1.2-1.8,1.2-3.2
		c0-1.5-0.4-2.7-1.2-3.6c-0.8-0.9-1.9-1.4-3.3-1.4h-5.2V563.7z"/>
	<path fill="#0000FF" d="M866.3,580.7h-7.8v-32.3h7.8V580.7z"/>
	<path fill="#0000FF" d="M898.6,580.7h-7.7l-11.4-20.1v20.1h-7.8v-32.3h7.8l11.4,20.1v-20.1h7.8V580.7z"/>
	<path fill="#0000FF" d="M911.9,580.7h-7.8v-32.3h7.8V580.7z"/>
	<path fill="#0000FF" d="M944.6,565.2c0,3.1-0.6,5.9-1.8,8.4c-1.2,2.4-2.8,4.3-5,5.6c-2.2,1.3-4.6,2-7.3,2c-2.7,0-5.2-0.6-7.3-1.9
		c-2.1-1.3-3.8-3.1-5-5.4c-1.2-2.3-1.8-5-1.9-8.1v-1.8c0-3.2,0.6-6,1.7-8.4c1.2-2.4,2.8-4.3,5-5.6c2.2-1.3,4.6-2,7.4-2
		c2.7,0,5.2,0.7,7.3,2c2.1,1.3,3.8,3.2,5,5.6c1.2,2.4,1.8,5.2,1.8,8.3V565.2z M936.7,563.8c0-3.2-0.5-5.6-1.6-7.3
		c-1.1-1.7-2.6-2.5-4.6-2.5c-3.9,0-6,2.9-6.2,8.8l0,2.4c0,3.2,0.5,5.6,1.6,7.3c1,1.7,2.6,2.5,4.7,2.5c2,0,3.5-0.8,4.5-2.5
		c1.1-1.7,1.6-4.1,1.6-7.2V563.8z"/>
	<path fill="#0000FF" d="M975.6,580.7h-7.7l-11.4-20.1v20.1h-7.8v-32.3h7.8l11.4,20.1v-20.1h7.8V580.7z"/>
</g>
<g>
	<rect x="1196.9" y="639" fill="none" stroke="#000000" width="47.8" height="39.8"/>
	<rect x="1275.1" y="639" fill="none" stroke="#000000" width="47.8" height="39.8"/>
	<rect x="1353.4" y="639" fill="none" stroke="#000000" width="47.8" height="39.8"/>
</g>
<g>
	<path fill="#0000FF" d="M1235.8,609.9l-2.8-2.8l-5.6,5.6l-3.2-3.2l5.6-5.6l-2.8-2.8l-5.6,5.6l-3.6-3.6l-2.7,2.7l16,16l2.7-2.7
		l-3.6-3.6C1230.2,615.4,1235.8,609.9,1235.8,609.9z"/>
	<path fill="#0000FF" d="M1228.6,622.1l-13.9-13.9c-3,3.6-6.4,9.1-4,13.9l-4.1,4.1c-1,1-1,2.6,0,3.5l0.5,0.5c1,1,2.6,1,3.5,0
		l4.1-4.1C1219.5,628.5,1225,625.1,1228.6,622.1L1228.6,622.1z"/>
</g>
<g>
	<path fill="#0000FF" d="M1392.2,609.9l-2.8-2.8l-5.6,5.6l-3.2-3.2l5.6-5.6l-2.8-2.8l-5.6,5.6l-3.6-3.6l-2.7,2.7l16,16l2.7-2.7
		l-3.6-3.6C1386.7,615.4,1392.2,609.9,1392.2,609.9z"/>
	<path fill="#0000FF" d="M1385.1,622.1l-13.9-13.9c-3,3.6-6.4,9.1-4,13.9l-4.1,4.1c-1,1-1,2.6,0,3.5l0.5,0.5c1,1,2.6,1,3.5,0
		l4.1-4.1C1375.9,628.5,1381.5,625.1,1385.1,622.1L1385.1,622.1z"/>
</g>
<path fill="#0000FF" d="M1304.8,609.5l5.4,6.5l-5.4,6.5l-1.5-1.3l4.4-5.2l-4.4-5.2L1304.8,609.5z M1298,617v-2h2v2H1298z M1304,615
	v2h-2v-2H1304z M1294,617v-2h2v2H1294z M1294.8,610.8l-4.4,5.2l4.4,5.2l-1.5,1.3l-5.4-6.5l5.4-6.5L1294.8,610.8z"/>
</svg>
